<svg xmlns:xlink="http://www.w3.org/1999/xlink" xmlns="http://www.w3.org/2000/svg" width="500" height="105.12" viewBox="0 0 371 78" fill="none">
<path fill-rule="evenodd" clip-rule="evenodd" d="M0 39.4887C0 14.4276 9.72306 0 26.5353 0C41.0174 0 49.764 11.0203 50.642 29.4477H33.8215C33.042 20.09 30.5148 14.7239 26.3384 14.7239C20.5046 14.7239 17.1077 23.3985 17.1077 39.3898C17.1077 54.303 20.4144 62.9859 26.5353 62.9859C30.9087 62.9859 33.92 57.7185 34.601 50.0151H24.6893V35.1925H50.5436C50.2481 48.8464 50.2481 66.492 50.4451 76.3353H39.7538C39.7235 76.095 39.6934 75.8526 39.6633 75.6083L39.663 75.6073L39.6629 75.6063V75.606C39.4961 74.2614 39.3227 72.8623 39.0728 71.463C35.6676 75.3641 31.2944 77.5123 25.9527 77.5123C9.42769 77.5123 0 63.669 0 39.4887ZM59.3968 0.880534H80.4839C95.0644 0.880534 104.788 10.2383 104.788 23.3079C104.788 31.1101 100.611 37.3486 93.8993 40.4679C97.887 43.2991 100.217 48.0727 101.284 54.7062L102.744 63.8747C103.713 69.8251 104.591 73.8168 105.567 76.3517H88.5578C87.6798 74.2035 86.9086 70.6975 86.0306 65.4302L84.767 57.6279C83.6018 50.9944 81.6572 48.2702 78.1537 48.2702H75.9218V76.3517H59.3968V0.880534ZM78.7363 34.0319C84.086 34.0319 87.7783 30.2296 87.7783 24.8634C87.7783 19.1104 84.086 15.2093 78.7363 15.2093H75.9137V34.0237H78.7363V34.0319ZM111.261 0.880534V54.8955C111.261 68.5412 120.114 77.6109 133.719 77.6109C147.322 77.6109 156.463 68.5494 156.463 54.8955V0.880534H139.552V55.4798C139.552 60.1546 137.419 62.9858 134.013 62.9858C130.313 62.9858 128.081 60.1628 128.081 55.4798V0.880534H111.261ZM165.012 0.880534H187.371C200.885 0.880534 210.214 9.46466 210.214 21.6454C210.214 28.0814 206.62 33.4393 201.272 36.3693C207.204 39.7848 210.995 46.1221 210.995 53.7268C210.995 67.8663 201.566 76.3517 187.954 76.3517H165.012V0.880534ZM185.139 31.1019C189.907 31.1019 193.106 27.7852 193.106 22.814C193.106 17.843 189.702 14.4275 184.942 14.4275H181.636V31.1019H185.131H185.139ZM185.041 62.6978C190.292 62.6978 193.788 58.7966 193.788 53.1424C193.788 47.4883 190.195 43.2909 185.041 43.2909H181.636V62.6978H185.041ZM245.967 76.3434H262.591V0.880534H245.967V31.5958H234.981V0.880534H218.455V76.3434H234.981V46.4101H245.967V76.3434ZM271.247 54.8955V0.880534H288.068V55.4798C288.068 60.1628 290.308 62.9858 294 62.9858C297.405 62.9858 299.538 60.1546 299.538 55.4798V0.880534H316.45V54.8955C316.45 68.5494 307.309 77.6109 293.704 77.6109C280.101 77.6109 271.247 68.5412 271.247 54.8955ZM347.358 0.880534H324.999V76.3517H347.94C361.553 76.3517 370.98 67.8663 370.98 53.7268C370.98 46.1221 367.189 39.7848 361.257 36.3693C366.607 33.4393 370.201 28.0814 370.201 21.6454C370.201 9.46466 360.872 0.880534 347.358 0.880534ZM353.093 22.814C353.093 27.7852 349.884 31.1019 345.126 31.1019H341.622V14.4275H344.929C349.687 14.4275 353.093 17.843 353.093 22.814ZM353.774 53.1424C353.774 58.7966 350.278 62.6978 345.027 62.6978H341.622V43.2909H345.027C350.18 43.2909 353.774 47.4883 353.774 53.1424Z" fill="#FF5500"/>
</svg>